<svg width="24" height="24" viewBox="0 0 24 24" fill="none" xmlns="http://www.w3.org/2000/svg">
<path d="M14.25 7.56938H3.75C3.55109 7.56938 3.36032 7.49036 3.21967 7.34971C3.07902 7.20906 3 7.01829 3 6.81938V3.81938C3 3.62047 3.07902 3.4297 3.21967 3.28905C3.36032 3.1484 3.55109 3.06938 3.75 3.06938H14.25C14.4489 3.06938 14.6397 3.1484 14.7803 3.28905C14.921 3.4297 15 3.62047 15 3.81938V6.81938C15 7.01829 14.921 7.20906 14.7803 7.34971C14.6397 7.49036 14.4489 7.56938 14.25 7.56938ZM4.5 6.06938H13.5V4.52438H4.5V6.06938Z" fill="#7B22D3"/>
<path d="M14.25 9.12944H3.75C3.55109 9.12944 3.36032 9.20846 3.21967 9.34911C3.07902 9.48976 3 9.68053 3 9.87944V12.8194C3 13.0184 3.07902 13.2091 3.21967 13.3498C3.36032 13.4904 3.55109 13.5694 3.75 13.5694H12.27L15 10.7944V9.87944C15 9.68053 14.921 9.48976 14.7803 9.34911C14.6397 9.20846 14.4489 9.12944 14.25 9.12944ZM13.5 12.0694H4.5V10.5694H13.5V12.0694Z" fill="#7B22D3"/>
<path d="M6.795 22.2019V22.1569L7.035 21.1144H1.5V1.56938H16.5V9.25688L18 7.83938V0.819382C18 0.620469 17.921 0.429704 17.7803 0.289052C17.6397 0.148399 17.4489 0.0693817 17.25 0.0693817H0.75C0.551088 0.0693817 0.360322 0.148399 0.21967 0.289052C0.0790176 0.429704 0 0.620469 0 0.819382V21.8194C0 22.0183 0.0790176 22.2091 0.21967 22.3497C0.360322 22.4904 0.551088 22.5694 0.75 22.5694H6.75C6.75618 22.446 6.77122 22.3231 6.795 22.2019Z" fill="#7B22D3"/>
<path d="M15 12.9468L14.415 13.5393C14.5601 13.5094 14.6931 13.4372 14.7973 13.3317C14.9014 13.2263 14.9719 13.0923 15 12.9468Z" fill="#7B22D3"/>
<path d="M3 18.7744C3 18.9733 3.07902 19.1641 3.21967 19.3047C3.36032 19.4454 3.55109 19.5244 3.75 19.5244H7.38L7.605 18.5494L7.7025 18.1369V18.0994H4.5V16.5694H9.255L10.755 15.0694H3.75C3.55109 15.0694 3.36032 15.1484 3.21967 15.2891C3.07902 15.4297 3 15.6205 3 15.8194V18.7744Z" fill="#7B22D3"/>
<path d="M23.6175 11.0719L21.09 8.5444C20.9778 8.43192 20.8446 8.34268 20.6978 8.28179C20.5511 8.2209 20.3938 8.18956 20.235 8.18956C20.0761 8.18956 19.9188 8.2209 19.7721 8.28179C19.6254 8.34268 19.4922 8.43192 19.38 8.5444L9.09749 18.8869L8.24999 22.4944C8.21826 22.65 8.21754 22.8104 8.24789 22.9663C8.27823 23.1222 8.33904 23.2706 8.42682 23.403C8.5146 23.5353 8.62764 23.6491 8.75945 23.7377C8.89127 23.8263 9.03927 23.8881 9.19499 23.9194C9.27229 23.9272 9.35018 23.9272 9.42749 23.9194C9.51938 23.9344 9.61309 23.9344 9.70499 23.9194L13.3425 23.1169L23.6175 12.8194C23.7297 12.7079 23.8188 12.5752 23.8796 12.4291C23.9404 12.2831 23.9717 12.1264 23.9717 11.9681C23.9717 11.8099 23.9404 11.6532 23.8796 11.5071C23.8188 11.3611 23.7297 11.2284 23.6175 11.1169V11.0719ZM12.5775 21.7519L9.83249 22.3594L10.5 19.6369L18.21 11.8444L20.325 13.9594L12.5775 21.7519ZM21.1725 13.1119L19.0575 10.9969L20.25 9.8194L22.38 11.9494L21.1725 13.1119Z" fill="#7B22D3"/>
</svg>
